<mxfile host="Electron" modified="2023-04-15T00:09:56.262Z" agent="Mozilla/5.0 (Windows NT 10.0; Win64; x64) AppleWebKit/537.36 (KHTML, like Gecko) draw.io/21.1.2 Chrome/106.0.5249.199 Electron/21.4.3 Safari/537.36" etag="077Lb0C6LH-7iozLbmXS" version="21.1.2" type="device">
  <diagram id="C5RBs43oDa-KdzZeNtuy" name="Page-1">
    <mxGraphModel dx="1103" dy="852" grid="1" gridSize="10" guides="1" tooltips="1" connect="1" arrows="1" fold="1" page="1" pageScale="1" pageWidth="827" pageHeight="1169" math="0" shadow="0">
      <root>
        <mxCell id="WIyWlLk6GJQsqaUBKTNV-0" />
        <mxCell id="WIyWlLk6GJQsqaUBKTNV-1" parent="WIyWlLk6GJQsqaUBKTNV-0" />
        <mxCell id="4gnxP2sQ2VsD838aAz_M-9" value="Yes" style="edgeStyle=orthogonalEdgeStyle;rounded=0;orthogonalLoop=1;jettySize=auto;html=1;entryX=1;entryY=0.5;entryDx=0;entryDy=0;exitX=1;exitY=0.5;exitDx=0;exitDy=0;" parent="WIyWlLk6GJQsqaUBKTNV-1" source="WIyWlLk6GJQsqaUBKTNV-6" target="AZPvqE0BZJFY2TZ7-WvY-54" edge="1">
          <mxGeometry relative="1" as="geometry">
            <mxPoint x="520" y="740" as="targetPoint" />
          </mxGeometry>
        </mxCell>
        <mxCell id="iIp1va1hybNeN1zys5Zl-10" value="NO" style="edgeStyle=orthogonalEdgeStyle;rounded=0;orthogonalLoop=1;jettySize=auto;html=1;" edge="1" parent="WIyWlLk6GJQsqaUBKTNV-1" source="WIyWlLk6GJQsqaUBKTNV-6" target="4gnxP2sQ2VsD838aAz_M-4">
          <mxGeometry relative="1" as="geometry" />
        </mxCell>
        <mxCell id="WIyWlLk6GJQsqaUBKTNV-6" value="if array[i] &amp;gt; 3&amp;nbsp;" style="rhombus;whiteSpace=wrap;html=1;shadow=0;fontFamily=Helvetica;fontSize=12;align=center;strokeWidth=1;spacing=6;spacingTop=-4;" parent="WIyWlLk6GJQsqaUBKTNV-1" vertex="1">
          <mxGeometry x="310" y="470" width="180" height="80" as="geometry" />
        </mxCell>
        <mxCell id="qFPU5979azw8YJ9yKIjF-7" value="" style="edgeStyle=orthogonalEdgeStyle;rounded=0;orthogonalLoop=1;jettySize=auto;html=1;fontSize=12;" parent="WIyWlLk6GJQsqaUBKTNV-1" source="AZPvqE0BZJFY2TZ7-WvY-1" target="qFPU5979azw8YJ9yKIjF-4" edge="1">
          <mxGeometry relative="1" as="geometry" />
        </mxCell>
        <mxCell id="AZPvqE0BZJFY2TZ7-WvY-1" value="Start" style="rounded=1;whiteSpace=wrap;html=1;perimeter=rectanglePerimeter;absoluteArcSize=1;arcSize=50;strokeOpacity=100;fillColor=#e51400;fontColor=#ffffff;strokeColor=#B20000;fontSize=12;" parent="WIyWlLk6GJQsqaUBKTNV-1" vertex="1">
          <mxGeometry x="355" y="55" width="90" height="40" as="geometry" />
        </mxCell>
        <mxCell id="AZPvqE0BZJFY2TZ7-WvY-45" value="Конец" style="rounded=1;whiteSpace=wrap;html=1;perimeter=rectanglePerimeter;absoluteArcSize=1;arcSize=20;strokeOpacity=100;fillColor=#e51400;fontColor=#ffffff;strokeColor=#B20000;fontSize=12;" parent="WIyWlLk6GJQsqaUBKTNV-1" vertex="1">
          <mxGeometry x="550" y="370" width="90" height="40" as="geometry" />
        </mxCell>
        <mxCell id="iIp1va1hybNeN1zys5Zl-11" style="edgeStyle=orthogonalEdgeStyle;rounded=0;orthogonalLoop=1;jettySize=auto;html=1;entryX=0;entryY=0.5;entryDx=0;entryDy=0;" edge="1" parent="WIyWlLk6GJQsqaUBKTNV-1" source="AZPvqE0BZJFY2TZ7-WvY-54" target="WIyWlLk6GJQsqaUBKTNV-6">
          <mxGeometry relative="1" as="geometry">
            <Array as="points">
              <mxPoint x="290" y="700" />
              <mxPoint x="290" y="510" />
            </Array>
          </mxGeometry>
        </mxCell>
        <mxCell id="AZPvqE0BZJFY2TZ7-WvY-54" value="i++" style="whiteSpace=wrap;html=1;fontSize=12;shadow=0;strokeWidth=1;spacing=6;spacingTop=-4;" parent="WIyWlLk6GJQsqaUBKTNV-1" vertex="1">
          <mxGeometry x="339" y="680" width="150" height="50" as="geometry" />
        </mxCell>
        <mxCell id="iIp1va1hybNeN1zys5Zl-7" style="edgeStyle=orthogonalEdgeStyle;rounded=0;orthogonalLoop=1;jettySize=auto;html=1;" edge="1" parent="WIyWlLk6GJQsqaUBKTNV-1" source="AZPvqE0BZJFY2TZ7-WvY-66">
          <mxGeometry relative="1" as="geometry">
            <mxPoint x="400" y="350" as="targetPoint" />
          </mxGeometry>
        </mxCell>
        <mxCell id="AZPvqE0BZJFY2TZ7-WvY-66" value="maxLength = 3&lt;br&gt;counter = 0&lt;br&gt;i = 0" style="whiteSpace=wrap;html=1;fontSize=12;shadow=0;strokeWidth=1;spacing=6;spacingTop=-4;" parent="WIyWlLk6GJQsqaUBKTNV-1" vertex="1">
          <mxGeometry x="340" y="230" width="120" height="50" as="geometry" />
        </mxCell>
        <mxCell id="VrBoY9CZEgXsuvHwSCkz-5" value="" style="edgeStyle=orthogonalEdgeStyle;rounded=0;orthogonalLoop=1;jettySize=auto;html=1;" parent="WIyWlLk6GJQsqaUBKTNV-1" source="qFPU5979azw8YJ9yKIjF-4" target="AZPvqE0BZJFY2TZ7-WvY-66" edge="1">
          <mxGeometry relative="1" as="geometry" />
        </mxCell>
        <mxCell id="qFPU5979azw8YJ9yKIjF-4" value="int size&lt;br&gt;String[] array[size]&lt;br&gt;String[] result[size]&lt;br&gt;int maxLength&lt;br&gt;int counter, i" style="shape=parallelogram;perimeter=parallelogramPerimeter;whiteSpace=wrap;html=1;fixedSize=1;fontSize=12;fillColor=#008a00;fontColor=#ffffff;strokeColor=#005700;" parent="WIyWlLk6GJQsqaUBKTNV-1" vertex="1">
          <mxGeometry x="319" y="130" width="160" height="70" as="geometry" />
        </mxCell>
        <mxCell id="iIp1va1hybNeN1zys5Zl-3" style="edgeStyle=orthogonalEdgeStyle;rounded=0;orthogonalLoop=1;jettySize=auto;html=1;exitX=0.5;exitY=1;exitDx=0;exitDy=0;entryX=0.398;entryY=0.012;entryDx=0;entryDy=0;entryPerimeter=0;" edge="1" parent="WIyWlLk6GJQsqaUBKTNV-1" source="4gnxP2sQ2VsD838aAz_M-4" target="AZPvqE0BZJFY2TZ7-WvY-54">
          <mxGeometry relative="1" as="geometry" />
        </mxCell>
        <mxCell id="4gnxP2sQ2VsD838aAz_M-4" value="result[counter] = array[i]&lt;br&gt;counter++" style="whiteSpace=wrap;html=1;shadow=0;strokeWidth=1;spacing=6;spacingTop=-4;" parent="WIyWlLk6GJQsqaUBKTNV-1" vertex="1">
          <mxGeometry x="339" y="580" width="120" height="50" as="geometry" />
        </mxCell>
        <mxCell id="iIp1va1hybNeN1zys5Zl-8" value="NO" style="edgeStyle=orthogonalEdgeStyle;rounded=0;orthogonalLoop=1;jettySize=auto;html=1;exitX=0.5;exitY=1;exitDx=0;exitDy=0;entryX=0.5;entryY=0;entryDx=0;entryDy=0;" edge="1" parent="WIyWlLk6GJQsqaUBKTNV-1" source="iIp1va1hybNeN1zys5Zl-6" target="WIyWlLk6GJQsqaUBKTNV-6">
          <mxGeometry relative="1" as="geometry" />
        </mxCell>
        <mxCell id="iIp1va1hybNeN1zys5Zl-9" value="YES" style="edgeStyle=orthogonalEdgeStyle;rounded=0;orthogonalLoop=1;jettySize=auto;html=1;" edge="1" parent="WIyWlLk6GJQsqaUBKTNV-1" source="iIp1va1hybNeN1zys5Zl-6">
          <mxGeometry relative="1" as="geometry">
            <mxPoint x="550" y="390" as="targetPoint" />
          </mxGeometry>
        </mxCell>
        <mxCell id="iIp1va1hybNeN1zys5Zl-6" value="if i = size" style="rhombus;whiteSpace=wrap;html=1;shadow=0;fontFamily=Helvetica;fontSize=12;align=center;strokeWidth=1;spacing=6;spacingTop=-4;" vertex="1" parent="WIyWlLk6GJQsqaUBKTNV-1">
          <mxGeometry x="310" y="350" width="180" height="80" as="geometry" />
        </mxCell>
      </root>
    </mxGraphModel>
  </diagram>
</mxfile>
